<svg width="25" height="25" viewBox="0 0 25 25" fill="none" xmlns="http://www.w3.org/2000/svg">
<path fill-rule="evenodd" clip-rule="evenodd" d="M23.4375 12.5C23.4375 12.2928 23.3552 12.0941 23.2087 11.9476C23.0622 11.8011 22.8634 11.7188 22.6562 11.7188H4.22968L9.14687 6.80314C9.2195 6.7305 9.27712 6.64427 9.31643 6.54936C9.35575 6.45445 9.37598 6.35274 9.37598 6.25001C9.37598 6.14729 9.35575 6.04557 9.31643 5.95066C9.27712 5.85576 9.2195 5.76952 9.14687 5.69689C9.07423 5.62425 8.988 5.56663 8.89309 5.52732C8.79819 5.48801 8.69647 5.46777 8.59374 5.46777C8.49102 5.46777 8.3893 5.48801 8.29439 5.52732C8.19949 5.56663 8.11325 5.62425 8.04062 5.69689L1.79062 11.9469C1.71786 12.0195 1.66014 12.1057 1.62075 12.2006C1.58137 12.2955 1.5611 12.3972 1.5611 12.5C1.5611 12.6028 1.58137 12.7045 1.62075 12.7994C1.66014 12.8944 1.71786 12.9806 1.79062 13.0531L8.04062 19.3031C8.11325 19.3758 8.19949 19.4334 8.29439 19.4727C8.3893 19.512 8.49102 19.5322 8.59374 19.5322C8.69647 19.5322 8.79819 19.512 8.89309 19.4727C8.988 19.4334 9.07423 19.3758 9.14687 19.3031C9.2195 19.2305 9.27712 19.1443 9.31643 19.0494C9.35575 18.9545 9.37598 18.8527 9.37598 18.75C9.37598 18.6473 9.35575 18.5456 9.31643 18.4507C9.27712 18.3558 9.2195 18.2695 9.14687 18.1969L4.22968 13.2813H22.6562C22.8634 13.2813 23.0622 13.199 23.2087 13.0524C23.3552 12.9059 23.4375 12.7072 23.4375 12.5Z" fill="black"/>
</svg>
